# xmcd CD database file
#
# Track frame offsets:
#	150
#	22050
#	53475
#	76350
#	125250
#
# Disc length: 2104 seconds
#
# Revision: 0
# Processed by: cddbd v1.5.1PL0 Copyright (c) Steve Scherf et al.
# Submitted via: CDex 1.51
#
DISCID=34083605
DTITLE=Kühn, Joachim - Charisma
DYEAR=1977
DGENRE=Jazz
TTITLE0=Hot Chili
TTITLE1=Come closer
TTITLE2=Charisma
TTITLE3=Take Your Pillow As A Soundingboard
TTITLE4=Welcome
EXTD=YEAR: 1977
EXTT0=
EXTT1=
EXTT2=
EXTT3=
EXTT4=
PLAYORDER=
